<?xml version="1.0" encoding="UTF-8" standalone="no"?>
<!-- Created with Inkscape (http://www.inkscape.org/) -->

<svg
   xmlns:dc="http://purl.org/dc/elements/1.1/"
   xmlns:cc="http://creativecommons.org/ns#"
   xmlns:rdf="http://www.w3.org/1999/02/22-rdf-syntax-ns#"
   xmlns:svg="http://www.w3.org/2000/svg"
   xmlns="http://www.w3.org/2000/svg"
   xmlns:sodipodi="http://sodipodi.sourceforge.net/DTD/sodipodi-0.dtd"
   xmlns:inkscape="http://www.inkscape.org/namespaces/inkscape"
   width="744.09448819"
   height="1052.3622047"
   id="svg2"
   version="1.1"
   inkscape:version="0.48.4 r9939"
   sodipodi:docname="interval1.svg">
  <defs
     id="defs4" />
  <sodipodi:namedview
     id="base"
     pagecolor="#ffffff"
     bordercolor="#666666"
     borderopacity="1.0"
     inkscape:pageopacity="0.0"
     inkscape:pageshadow="2"
     inkscape:zoom="1.979899"
     inkscape:cx="270.37063"
     inkscape:cy="849.41196"
     inkscape:document-units="px"
     inkscape:current-layer="layer1"
     showgrid="false"
     inkscape:window-width="1920"
     inkscape:window-height="1052"
     inkscape:window-x="1920"
     inkscape:window-y="0"
     inkscape:window-maximized="1" />
  <metadata
     id="metadata7">
    <rdf:RDF>
      <cc:Work
         rdf:about="">
        <dc:format>image/svg+xml</dc:format>
        <dc:type
           rdf:resource="http://purl.org/dc/dcmitype/StillImage" />
        <dc:title />
      </cc:Work>
    </rdf:RDF>
  </metadata>
  <g
     inkscape:label="Layer 1"
     inkscape:groupmode="layer"
     id="layer1">
    <rect
       style="fill:#ffd5d5;fill-opacity:1;stroke:#000000;stroke-width:3;stroke-linejoin:round;stroke-miterlimit:4;stroke-opacity:1;stroke-dasharray:none;stroke-dashoffset:0"
       id="rect2985"
       width="145.13002"
       height="48.376663"
       x="61.619305"
       y="216.96603" />
    <path
       style="fill:#aaffee;fill-opacity:1;stroke:#000000;stroke-width:3;stroke-linejoin:round;stroke-miterlimit:4;stroke-dashoffset:0;stroke-opacity:1"
       d="m 206.80531,216.95822 145.13002,0 0,48.37666 -145.13002,0 z"
       id="rect2985-3" />
    <text
       xml:space="preserve"
       style="font-size:20px;font-style:normal;font-weight:normal;line-height:125%;letter-spacing:0px;word-spacing:0px;fill:#000000;fill-opacity:1;stroke:none;font-family:Sans"
       x="104.57109"
       y="246.76553"
       id="text3773"
       sodipodi:linespacing="125%"><tspan
         sodipodi:role="line"
         id="tspan3775"
         x="104.57109"
         y="246.76553">e [2,3]</tspan></text>
    <g
       style="font-size:20px;font-style:normal;font-weight:normal;line-height:125%;letter-spacing:0px;word-spacing:0px;fill:#000000;fill-opacity:1;stroke:none;font-family:Sans"
       id="text3777">
      <path
         d="m 247.82741,245.12489 0,5.80078 -1.80664,0 0,-15.09765 1.80664,0 0,1.66015 c 0.3776,-0.65103 0.85286,-1.1328 1.42578,-1.44531 0.57942,-0.319 1.26952,-0.4785 2.07031,-0.47851 1.32812,1e-5 2.40559,0.52735 3.23242,1.58203 0.83333,1.05469 1.24999,2.44141 1.25,4.16015 -10e-6,1.71876 -0.41667,3.10547 -1.25,4.16016 -0.82683,1.05469 -1.9043,1.58203 -3.23242,1.58203 -0.80079,0 -1.49089,-0.15625 -2.07031,-0.46875 -0.57292,-0.31901 -1.04818,-0.80403 -1.42578,-1.45508 m 6.11328,-3.81836 c -1e-5,-1.3216 -0.27345,-2.35676 -0.82031,-3.10546 -0.54038,-0.7552 -1.28582,-1.13281 -2.23633,-1.13282 -0.95053,1e-5 -1.69923,0.37762 -2.2461,1.13282 -0.54036,0.7487 -0.81055,1.78386 -0.81054,3.10546 -10e-6,1.32162 0.27018,2.36003 0.81054,3.11524 0.54687,0.7487 1.29557,1.12305 2.2461,1.12305 0.95051,0 1.69595,-0.37435 2.23633,-1.12305 0.54686,-0.75521 0.8203,-1.79362 0.82031,-3.11524"
         style=""
         id="path3868" />
      <path
         d="m 258.78444,235.82802 1.79687,0 0,10.9375 -1.79687,0 0,-10.9375 m 0,-4.25781 1.79687,0 0,2.27539 -1.79687,0 0,-2.27539"
         style=""
         id="path3870" />
      <path
         d="m 270.53249,231.57021 4.14062,0 0,1.39648 -2.34375,0 0,15.03906 2.34375,0 0,1.39649 -4.14062,0 0,-17.83203"
         style=""
         id="path3872" />
      <path
         d="m 284.74147,238.90419 c 0.944,0.20183 1.67968,0.62175 2.20703,1.25977 0.53384,0.63802 0.80077,1.42578 0.80078,2.36328 -10e-6,1.4388 -0.4948,2.55208 -1.48437,3.33984 -0.98959,0.78776 -2.39584,1.18164 -4.21875,1.18164 -0.61199,0 -1.2435,-0.0618 -1.89453,-0.18555 -0.64454,-0.11718 -1.31185,-0.29622 -2.00196,-0.5371 l 0,-1.9043 c 0.54688,0.31901 1.14583,0.5599 1.79688,0.72265 0.65104,0.16277 1.33137,0.24415 2.04101,0.24415 1.23698,0 2.17773,-0.24414 2.82227,-0.73243 0.65103,-0.48828 0.97655,-1.19791 0.97656,-2.1289 -10e-6,-0.85937 -0.30274,-1.52995 -0.9082,-2.01172 -0.59897,-0.48828 -1.43555,-0.73242 -2.50977,-0.73242 l -1.69922,0 0,-1.6211 1.77735,0 c 0.97004,1e-5 1.71223,-0.19205 2.22656,-0.57617 0.51432,-0.39061 0.77148,-0.95051 0.77149,-1.67969 -10e-6,-0.74868 -0.26694,-1.3216 -0.80079,-1.71875 -0.52735,-0.40363 -1.28581,-0.60545 -2.27539,-0.60547 -0.54037,2e-5 -1.11979,0.0586 -1.73828,0.17579 -0.61849,0.1172 -1.29883,0.29949 -2.04101,0.54687 l 0,-1.75781 c 0.74869,-0.20832 1.44856,-0.36457 2.09961,-0.46875 0.65754,-0.10415 1.27603,-0.15624 1.85546,-0.15625 1.49739,1e-5 2.68229,0.34181 3.55469,1.02539 0.87239,0.6771 1.30859,1.59506 1.3086,2.75391 -10e-6,0.8073 -0.23113,1.49089 -0.69336,2.05078 -0.46225,0.55339 -1.1198,0.9375 -1.97266,1.15234"
         style=""
         id="path3874" />
      <path
         d="m 291.70436,244.28505 2.06055,0 0,1.67969 -1.60156,3.125 -1.25977,0 0.80078,-3.125 0,-1.67969"
         style=""
         id="path3876" />
      <path
         d="m 303.28639,233.90419 -4.98047,7.7832 4.98047,0 0,-7.7832 m -0.51758,-1.71875 2.48047,0 0,9.50195 2.08008,0 0,1.64063 -2.08008,0 0,3.4375 -1.96289,0 0,-3.4375 -6.58203,0 0,-1.9043 6.06445,-9.23828"
         style=""
         id="path3878" />
      <path
         d="m 314.54616,231.57021 0,17.83203 -4.14063,0 0,-1.39649 2.33399,0 0,-15.03906 -2.33399,0 0,-1.39648 4.14063,0"
         style=""
         id="path3880" />
    </g>
    <path
       style="fill:none;stroke:#000000;stroke-width:3;stroke-linecap:butt;stroke-linejoin:miter;stroke-miterlimit:4;stroke-opacity:1;stroke-dasharray:3, 6;stroke-dashoffset:0"
       d="m 61.515229,197.23591 0,86.78572"
       id="path3825"
       inkscape:connector-curvature="0" />
    <path
       style="fill:none;stroke:#000000;stroke-width:3;stroke-linecap:butt;stroke-linejoin:miter;stroke-miterlimit:4;stroke-opacity:1;stroke-dasharray:3, 6;stroke-dashoffset:0"
       d="m 206.71013,284.04583 0,-86.78572"
       id="path3825-2"
       inkscape:connector-curvature="0" />
    <path
       style="fill:none;stroke:#000000;stroke-width:3;stroke-linecap:butt;stroke-linejoin:miter;stroke-miterlimit:4;stroke-opacity:1;stroke-dasharray:3, 6;stroke-dashoffset:0"
       d="m 351.92768,284.03434 0,-86.78572"
       id="path3825-9"
       inkscape:connector-curvature="0" />
    <path
       style="fill:none;stroke:#000000;stroke-width:3;stroke-linecap:butt;stroke-linejoin:miter;stroke-miterlimit:4;stroke-opacity:1;stroke-dasharray:3, 6;stroke-dashoffset:0"
       d="m 496.95065,197.07514 0,86.78572"
       id="path3825-9-1"
       inkscape:connector-curvature="0" />
    <path
       style="fill:none;stroke:#000000;stroke-width:3;stroke-linecap:butt;stroke-linejoin:miter;stroke-miterlimit:4;stroke-opacity:1;stroke-dasharray:3, 6;stroke-dashoffset:0"
       d="m 642.02165,197.36473 0,86.78572"
       id="path3825-9-1-0"
       inkscape:connector-curvature="0" />
  </g>
</svg>
